<mxfile host="drawio-plugin" modified="2023-04-16T09:24:21.633Z" agent="5.0 (Windows NT 6.2; Win64; x64) AppleWebKit/537.36 (KHTML, like Gecko) Chrome/104.0.5112.102 Safari/537.36" etag="NDb_i1sElEnIuNTs5Bco" version="20.5.3" type="embed"><diagram id="kgpKYQtTHZ0yAKxKKP6v" name="Page-1"><mxGraphModel dx="1455" dy="828" grid="1" gridSize="10" guides="1" tooltips="1" connect="1" arrows="1" fold="1" page="1" pageScale="1" pageWidth="2000" pageHeight="1100" background="#F4F1DE" math="0" shadow="0"><root><mxCell id="0"/><mxCell id="1" parent="0"/><mxCell id="3nuBFxr9cyL0pnOWT2aG-1" value="Client" style="shape=umlLifeline;perimeter=lifelinePerimeter;container=1;collapsible=0;recursiveResize=0;rounded=0;shadow=0;strokeWidth=1;labelBackgroundColor=none;fillColor=#F2CC8F;strokeColor=#E07A5F;fontColor=#393C56;" parent="1" vertex="1"><mxGeometry x="75" y="80" width="100" height="610" as="geometry"/></mxCell><mxCell id="3nuBFxr9cyL0pnOWT2aG-2" value="" style="points=[];perimeter=orthogonalPerimeter;rounded=0;shadow=0;strokeWidth=1;labelBackgroundColor=none;fillColor=#F2CC8F;strokeColor=#E07A5F;fontColor=#393C56;" parent="3nuBFxr9cyL0pnOWT2aG-1" vertex="1"><mxGeometry x="45" y="90" width="10" height="480" as="geometry"/></mxCell><mxCell id="xd97Cj7OGT5LDfM5PxOL-47" value="Ready to Play(msg)" style="html=1;verticalAlign=bottom;endArrow=block;rounded=0;labelBackgroundColor=none;strokeColor=#E07A5F;fontColor=#393C56;" parent="3nuBFxr9cyL0pnOWT2aG-1" target="3nuBFxr9cyL0pnOWT2aG-6" edge="1"><mxGeometry width="80" relative="1" as="geometry"><mxPoint x="55" y="470" as="sourcePoint"/><mxPoint x="135" y="470" as="targetPoint"/></mxGeometry></mxCell><mxCell id="xd97Cj7OGT5LDfM5PxOL-17" value="Loop status = TAKEN" style="shape=umlFrame;whiteSpace=wrap;html=1;width=110;height=35;labelBackgroundColor=none;fillColor=#F2CC8F;strokeColor=#E07A5F;fontColor=#393C56;" parent="3nuBFxr9cyL0pnOWT2aG-1" vertex="1"><mxGeometry x="-50" y="150" width="410" height="285" as="geometry"/></mxCell><mxCell id="xd97Cj7OGT5LDfM5PxOL-23" value="Break&lt;br&gt;status = NOT_TAKEN" style="shape=umlFrame;whiteSpace=wrap;html=1;width=140;height=40;labelBackgroundColor=none;fillColor=#F2CC8F;strokeColor=#E07A5F;fontColor=#393C56;" parent="3nuBFxr9cyL0pnOWT2aG-1" vertex="1"><mxGeometry x="-22.5" y="230" width="355" height="80" as="geometry"/></mxCell><mxCell id="xd97Cj7OGT5LDfM5PxOL-36" value="Break&lt;br&gt;status = OLD" style="shape=umlFrame;whiteSpace=wrap;html=1;fillStyle=auto;fillColor=#F2CC8F;width=115;height=30;swimlaneFillColor=none;labelBackgroundColor=none;strokeColor=#E07A5F;fontColor=#393C56;" parent="1" vertex="1"><mxGeometry x="60" y="400" width="355" height="80" as="geometry"/></mxCell><mxCell id="3nuBFxr9cyL0pnOWT2aG-5" value="Server" style="shape=umlLifeline;perimeter=lifelinePerimeter;container=1;collapsible=0;recursiveResize=0;rounded=0;shadow=0;strokeWidth=1;labelBackgroundColor=none;fillColor=#F2CC8F;strokeColor=#E07A5F;fontColor=#393C56;" parent="1" vertex="1"><mxGeometry x="260" y="80" width="190" height="610" as="geometry"/></mxCell><mxCell id="3nuBFxr9cyL0pnOWT2aG-6" value="" style="points=[];perimeter=orthogonalPerimeter;rounded=0;shadow=0;strokeWidth=1;labelBackgroundColor=none;fillColor=#F2CC8F;strokeColor=#E07A5F;fontColor=#393C56;" parent="3nuBFxr9cyL0pnOWT2aG-5" vertex="1"><mxGeometry x="90" y="70" width="10" height="500" as="geometry"/></mxCell><mxCell id="xd97Cj7OGT5LDfM5PxOL-20" value="Nickname Status(status)" style="html=1;verticalAlign=bottom;endArrow=open;rounded=0;dashed=1;endFill=0;labelBackgroundColor=none;strokeColor=#E07A5F;fontColor=#393C56;" parent="3nuBFxr9cyL0pnOWT2aG-5" source="3nuBFxr9cyL0pnOWT2aG-6" edge="1"><mxGeometry width="80" relative="1" as="geometry"><mxPoint x="-65" y="220" as="sourcePoint"/><mxPoint x="-130" y="220" as="targetPoint"/></mxGeometry></mxCell><mxCell id="xd97Cj7OGT5LDfM5PxOL-45" value="Request New Data()" style="html=1;verticalAlign=bottom;endArrow=block;rounded=0;endFill=1;labelBackgroundColor=none;strokeColor=#E07A5F;fontColor=#393C56;" parent="3nuBFxr9cyL0pnOWT2aG-5" edge="1"><mxGeometry relative="1" as="geometry"><mxPoint x="-130" y="280" as="sourcePoint"/><mxPoint x="90" y="280.2" as="targetPoint"/></mxGeometry></mxCell><mxCell id="3nuBFxr9cyL0pnOWT2aG-8" value="Ping()" style="verticalAlign=bottom;endArrow=block;shadow=0;strokeWidth=1;labelBackgroundColor=none;strokeColor=#E07A5F;fontColor=#393C56;" parent="1" source="3nuBFxr9cyL0pnOWT2aG-2" edge="1"><mxGeometry relative="1" as="geometry"><mxPoint x="235" y="160" as="sourcePoint"/><mxPoint x="350" y="170" as="targetPoint"/><Array as="points"><mxPoint x="235" y="170"/></Array></mxGeometry></mxCell><mxCell id="xd97Cj7OGT5LDfM5PxOL-16" value="Ack()" style="html=1;verticalAlign=bottom;endArrow=open;rounded=0;dashed=1;endFill=0;entryX=0.99;entryY=0.061;entryDx=0;entryDy=0;entryPerimeter=0;exitX=0;exitY=0.1;exitDx=0;exitDy=0;exitPerimeter=0;labelBackgroundColor=none;strokeColor=#E07A5F;fontColor=#393C56;" parent="1" source="3nuBFxr9cyL0pnOWT2aG-6" target="3nuBFxr9cyL0pnOWT2aG-2" edge="1"><mxGeometry x="0.0002" width="80" relative="1" as="geometry"><mxPoint x="345" y="200" as="sourcePoint"/><mxPoint x="135" y="200" as="targetPoint"/><Array as="points"><mxPoint x="295" y="200"/></Array><mxPoint as="offset"/></mxGeometry></mxCell><mxCell id="xd97Cj7OGT5LDfM5PxOL-41" value="Resume Match(player)" style="html=1;verticalAlign=bottom;endArrow=open;dashed=1;endSize=8;rounded=0;exitX=0.092;exitY=0.621;exitDx=0;exitDy=0;exitPerimeter=0;labelBackgroundColor=none;strokeColor=#E07A5F;fontColor=#393C56;" parent="1" source="3nuBFxr9cyL0pnOWT2aG-6" edge="1"><mxGeometry x="-0.0013" relative="1" as="geometry"><mxPoint x="342.5" y="460" as="sourcePoint"/><mxPoint x="130" y="460" as="targetPoint"/><mxPoint as="offset"/></mxGeometry></mxCell><mxCell id="xd97Cj7OGT5LDfM5PxOL-42" value="Request Old Data()" style="html=1;verticalAlign=bottom;endArrow=block;rounded=0;endFill=1;exitX=0.256;exitY=0.737;exitDx=0;exitDy=0;exitPerimeter=0;labelBackgroundColor=none;strokeColor=#E07A5F;fontColor=#393C56;" parent="1" source="xd97Cj7OGT5LDfM5PxOL-17" edge="1"><mxGeometry relative="1" as="geometry"><mxPoint x="137.5" y="439.8" as="sourcePoint"/><mxPoint x="350" y="440" as="targetPoint"/></mxGeometry></mxCell><mxCell id="xd97Cj7OGT5LDfM5PxOL-49" value="Client" style="shape=umlLifeline;perimeter=lifelinePerimeter;container=1;collapsible=0;recursiveResize=0;rounded=0;shadow=0;strokeWidth=1;labelBackgroundColor=none;fillColor=#F2CC8F;strokeColor=#E07A5F;fontColor=#393C56;" parent="1" vertex="1"><mxGeometry x="665" y="80" width="100" height="320" as="geometry"/></mxCell><mxCell id="xd97Cj7OGT5LDfM5PxOL-52" value="Server" style="shape=umlLifeline;perimeter=lifelinePerimeter;container=1;collapsible=0;recursiveResize=0;rounded=0;shadow=0;strokeWidth=1;labelBackgroundColor=none;fillColor=#F2CC8F;strokeColor=#E07A5F;fontColor=#393C56;" parent="1" vertex="1"><mxGeometry x="975" y="80" width="110" height="320" as="geometry"/></mxCell><mxCell id="xd97Cj7OGT5LDfM5PxOL-73" value="Client" style="shape=umlLifeline;perimeter=lifelinePerimeter;container=1;collapsible=0;recursiveResize=0;rounded=0;shadow=0;strokeWidth=1;labelBackgroundColor=none;fillColor=#F2CC8F;strokeColor=#E07A5F;fontColor=#393C56;size=40;" parent="1" vertex="1"><mxGeometry x="1280" y="90" width="110" height="320" as="geometry"/></mxCell><mxCell id="xd97Cj7OGT5LDfM5PxOL-74" value="" style="points=[];perimeter=orthogonalPerimeter;rounded=0;shadow=0;strokeWidth=1;labelBackgroundColor=none;fillColor=#F2CC8F;strokeColor=#E07A5F;fontColor=#393C56;" parent="xd97Cj7OGT5LDfM5PxOL-73" vertex="1"><mxGeometry x="50" y="70" width="10" height="220" as="geometry"/></mxCell><mxCell id="WfIC341H3JlA9D3DnRTq-14" value="" style="verticalAlign=bottom;endArrow=block;shadow=0;strokeWidth=1;labelBackgroundColor=none;strokeColor=#E07A5F;fontColor=#393C56;" parent="xd97Cj7OGT5LDfM5PxOL-73" edge="1"><mxGeometry x="-0.0085" y="-30" relative="1" as="geometry"><mxPoint x="59" y="140" as="sourcePoint"/><mxPoint x="360" y="141" as="targetPoint"/><Array as="points"><mxPoint x="94" y="140"/><mxPoint x="194" y="141"/></Array><mxPoint as="offset"/></mxGeometry></mxCell><mxCell id="xd97Cj7OGT5LDfM5PxOL-75" value="Server" style="shape=umlLifeline;perimeter=lifelinePerimeter;container=1;collapsible=0;recursiveResize=0;rounded=0;shadow=0;strokeWidth=1;labelBackgroundColor=none;fillColor=#F2CC8F;strokeColor=#E07A5F;fontColor=#393C56;" parent="1" vertex="1"><mxGeometry x="1590" y="90" width="120" height="320" as="geometry"/></mxCell><mxCell id="xd97Cj7OGT5LDfM5PxOL-77" value="Alt&lt;br&gt;state = NOT_ACTIVE" style="shape=umlFrame;whiteSpace=wrap;html=1;fillStyle=auto;fillColor=#F2CC8F;width=140;height=30;labelBackgroundColor=none;strokeColor=#E07A5F;fontColor=#393C56;" parent="xd97Cj7OGT5LDfM5PxOL-75" vertex="1"><mxGeometry x="-300" y="190" width="420" height="85" as="geometry"/></mxCell><mxCell id="xd97Cj7OGT5LDfM5PxOL-76" value="" style="points=[];perimeter=orthogonalPerimeter;rounded=0;shadow=0;strokeWidth=1;labelBackgroundColor=none;fillColor=#F2CC8F;strokeColor=#E07A5F;fontColor=#393C56;" parent="xd97Cj7OGT5LDfM5PxOL-75" vertex="1"><mxGeometry x="55" y="70" width="10" height="220" as="geometry"/></mxCell><mxCell id="3" value="&lt;div style=&quot;&quot;&gt;&lt;div&gt;&lt;b&gt;Login of a player in the game&lt;/b&gt;&lt;/div&gt;&lt;div&gt;Loop until the status of the nickname is TAKEN.&lt;/div&gt;&lt;div&gt;The first time the client propose a nickname, the server return the status of the nickname (OLD, TAKEN, NOT_TAKEN):&amp;nbsp;&lt;/div&gt;&lt;div&gt;if it's TAKEN, then stay in the loop;&lt;/div&gt;&lt;div&gt;if it's NOT_TAKEN, then the client send the data request to the server, and the server reply with the data useful to run the game;&amp;nbsp;&lt;/div&gt;&lt;div&gt;if it's OLD, then the client request the old data of the disconnected player, and the server resume the match for this player.&lt;/div&gt;&lt;div style=&quot;&quot;&gt;When the Client exit the loop, it notify the server that it's ready to play.&lt;/div&gt;&lt;/div&gt;" style="text;html=1;align=left;verticalAlign=middle;resizable=0;points=[];autosize=1;strokeColor=#E07A5F;fillColor=none;strokeWidth=2;labelBackgroundColor=none;fontColor=#393C56;" parent="1" vertex="1"><mxGeometry x="40" y="730" width="710" height="110" as="geometry"/></mxCell><mxCell id="10" value="&lt;div&gt;&lt;b&gt;&lt;i&gt;Select the cards and insert them in the shelfie&lt;/i&gt;&lt;/b&gt;&lt;/div&gt;&lt;div&gt;On our project, all the checks about the possibility to choose&amp;nbsp;&lt;/div&gt;&lt;div style=&quot;&quot;&gt;cards from the board and also the deploy in the shelfie are made by the client:&amp;nbsp;&lt;/div&gt;&lt;div&gt;as a consequence it's only necessary to send to the server the updated board and the&amp;nbsp;&lt;/div&gt;&lt;div&gt;updated shelfie of the player that is playing; after that, the server send to the other&amp;nbsp;&lt;/div&gt;&lt;div&gt;clients the board updated.&lt;/div&gt;" style="text;html=1;align=left;verticalAlign=middle;resizable=0;points=[];autosize=1;strokeColor=#E07A5F;fillColor=none;strokeWidth=2;labelBackgroundColor=none;fontColor=#393C56;" parent="1" vertex="1"><mxGeometry x="630" y="420" width="480" height="100" as="geometry"/></mxCell><mxCell id="11" value="&lt;div&gt;&lt;b&gt;&lt;i&gt;The Common Objective is completed&lt;/i&gt;&lt;/b&gt;&lt;/div&gt;&lt;div style=&quot;&quot;&gt;On our project, the points are assigned by the client when it know&amp;nbsp;&lt;/div&gt;&lt;div&gt;that a common objective has been completed: in fact, the only interaction between the server and&amp;nbsp;&lt;/div&gt;&lt;div&gt;the client is to update the status of the common objective, in particular&amp;nbsp;&lt;/div&gt;&lt;div&gt;how many points a player make when he reach the objective at that moment.&lt;/div&gt;" style="text;html=1;align=left;verticalAlign=middle;resizable=0;points=[];autosize=1;strokeColor=#E07A5F;fillColor=none;strokeWidth=2;labelBackgroundColor=none;fontColor=#393C56;" parent="1" vertex="1"><mxGeometry x="1280" y="430" width="540" height="90" as="geometry"/></mxCell><mxCell id="xd97Cj7OGT5LDfM5PxOL-46" value="Send Game Info(player)" style="html=1;verticalAlign=bottom;endArrow=open;dashed=1;endSize=8;rounded=0;exitX=-0.056;exitY=0.459;exitDx=0;exitDy=0;exitPerimeter=0;labelBackgroundColor=none;strokeColor=#E07A5F;fontColor=#393C56;" parent="1" source="3nuBFxr9cyL0pnOWT2aG-6" edge="1"><mxGeometry x="-0.0013" relative="1" as="geometry"><mxPoint x="342.5" y="380" as="sourcePoint"/><mxPoint x="130" y="380" as="targetPoint"/><mxPoint as="offset"/></mxGeometry></mxCell><mxCell id="xd97Cj7OGT5LDfM5PxOL-19" value="Propose Login(name)" style="html=1;verticalAlign=bottom;endArrow=block;rounded=0;labelBackgroundColor=none;strokeColor=#E07A5F;fontColor=#393C56;" parent="1" target="3nuBFxr9cyL0pnOWT2aG-6" edge="1"><mxGeometry width="80" relative="1" as="geometry"><mxPoint x="130" y="270" as="sourcePoint"/><mxPoint x="215" y="270" as="targetPoint"/><mxPoint as="offset"/></mxGeometry></mxCell><mxCell id="WfIC341H3JlA9D3DnRTq-11" value="" style="verticalAlign=bottom;endArrow=block;shadow=0;strokeWidth=1;labelBackgroundColor=none;strokeColor=#E07A5F;fontColor=#393C56;dashed=1;" parent="1" source="xd97Cj7OGT5LDfM5PxOL-76" edge="1"><mxGeometry x="1" y="-180" relative="1" as="geometry"><mxPoint x="1550" y="330" as="sourcePoint"/><mxPoint x="1340" y="330" as="targetPoint"/><Array as="points"><mxPoint x="1428" y="330"/></Array><mxPoint x="174" y="-131" as="offset"/></mxGeometry></mxCell><mxCell id="WfIC341H3JlA9D3DnRTq-16" value="Send Updated Common Obj(playerName, obj)" style="text;html=1;align=center;verticalAlign=middle;resizable=0;points=[];autosize=1;strokeColor=none;fillColor=none;fontColor=#393C56;" parent="1" vertex="1"><mxGeometry x="1360" y="203" width="270" height="30" as="geometry"/></mxCell><mxCell id="WfIC341H3JlA9D3DnRTq-13" value="Notify Updated Common Obj(obj)" style="text;html=1;align=center;verticalAlign=middle;resizable=0;points=[];autosize=1;strokeColor=none;fillColor=none;fontColor=#393C56;" parent="1" vertex="1"><mxGeometry x="1410" y="305.5" width="200" height="30" as="geometry"/></mxCell><mxCell id="WfIC341H3JlA9D3DnRTq-15" value="Alt&lt;br&gt;state = ACTIVE" style="shape=umlFrame;whiteSpace=wrap;html=1;strokeColor=#E07A5F;fontColor=#393C56;fillColor=#F2CC8F;width=140;height=30;" parent="1" vertex="1"><mxGeometry x="1290" y="170" width="415" height="90" as="geometry"/></mxCell><mxCell id="12" value="" style="points=[];perimeter=orthogonalPerimeter;rounded=0;shadow=0;strokeWidth=1;labelBackgroundColor=none;fillColor=#F2CC8F;strokeColor=#E07A5F;fontColor=#393C56;" vertex="1" parent="1"><mxGeometry x="710" y="150" width="10" height="220" as="geometry"/></mxCell><mxCell id="13" value="" style="verticalAlign=bottom;endArrow=block;shadow=0;strokeWidth=1;labelBackgroundColor=none;strokeColor=#E07A5F;fontColor=#393C56;" edge="1" parent="1"><mxGeometry x="-0.0085" y="-30" relative="1" as="geometry"><mxPoint x="719" y="220" as="sourcePoint"/><mxPoint x="1020" y="221" as="targetPoint"/><Array as="points"><mxPoint x="754" y="220"/><mxPoint x="854" y="221"/></Array><mxPoint as="offset"/></mxGeometry></mxCell><mxCell id="14" value="Alt&lt;br&gt;state = NOT_ACTIVE" style="shape=umlFrame;whiteSpace=wrap;html=1;fillStyle=auto;fillColor=#F2CC8F;width=140;height=30;labelBackgroundColor=none;strokeColor=#E07A5F;fontColor=#393C56;" vertex="1" parent="1"><mxGeometry x="670" y="270" width="420" height="85" as="geometry"/></mxCell><mxCell id="15" value="" style="points=[];perimeter=orthogonalPerimeter;rounded=0;shadow=0;strokeWidth=1;labelBackgroundColor=none;fillColor=#F2CC8F;strokeColor=#E07A5F;fontColor=#393C56;" vertex="1" parent="1"><mxGeometry x="1025" y="150" width="10" height="220" as="geometry"/></mxCell><mxCell id="16" value="" style="verticalAlign=bottom;endArrow=block;shadow=0;strokeWidth=1;labelBackgroundColor=none;strokeColor=#E07A5F;fontColor=#393C56;dashed=1;" edge="1" parent="1" source="15"><mxGeometry x="1" y="-180" relative="1" as="geometry"><mxPoint x="930" y="320" as="sourcePoint"/><mxPoint x="720" y="320" as="targetPoint"/><Array as="points"><mxPoint x="808" y="320"/></Array><mxPoint x="174" y="-131" as="offset"/></mxGeometry></mxCell><mxCell id="17" value="Send Updated Board (board, library)" style="text;html=1;align=center;verticalAlign=middle;resizable=0;points=[];autosize=1;strokeColor=none;fillColor=none;fontColor=#393C56;" vertex="1" parent="1"><mxGeometry x="765" y="193" width="220" height="30" as="geometry"/></mxCell><mxCell id="18" value="Notify Updated Board (board, library)" style="text;html=1;align=center;verticalAlign=middle;resizable=0;points=[];autosize=1;strokeColor=none;fillColor=none;fontColor=#393C56;" vertex="1" parent="1"><mxGeometry x="780" y="295.5" width="220" height="30" as="geometry"/></mxCell><mxCell id="19" value="Alt&lt;br&gt;state = ACTIVE" style="shape=umlFrame;whiteSpace=wrap;html=1;strokeColor=#E07A5F;fontColor=#393C56;fillColor=#F2CC8F;width=140;height=30;" vertex="1" parent="1"><mxGeometry x="672.5" y="170" width="415" height="90" as="geometry"/></mxCell></root></mxGraphModel></diagram></mxfile>